<svg version="1.0" xmlns="http://www.w3.org/2000/svg" width="666.667" height="666.667" viewBox="0 0 500 500"><g fill="#5483f9"><path d="M221.2 64.9c-6.3 2.2-12.3 7.7-15.4 14.1-2.8 5.6-3 16.5-.4 22.2 3.4 7.9 9.3 12.8 19.1 15.9 4.3 1.4 4.7 1.8 2.9 2.5-6.4 2.8-78.2 44.4-80.5 46.7-4.9 4.8-3.7 14.6 2.1 18 5.2 3.1 9.9 2.2 20.5-3.8 5.4-3 9.9-5.5 10.1-5.5.1 0 2.9-1.5 6.1-3.4s11.2-6.4 17.7-10c10.8-6.1 12.1-6.5 13-5 1.4 2.2 3 5 8.5 14.4 2.4 4.1 7.5 12.6 11.3 18.8 3.7 6.3 6.8 11.6 6.8 11.8s-10.2.4-22.7.4c-28.1 0-27.4-.3-35.8 12.7-10.6 16.4-22.5 36-24.1 39.8-5.1 12.3 10.5 24.8 21.7 17.2 3.7-2.5 6.4-6.3 18.9-26.5l8.2-13.2h20.9c11.5 0 20.9.2 20.9.3 0 .2-3.8 3.4-8.5 7.1-10.4 8.3-11.9 10.8-11.2 19 .6 8.1 11.5 59.2 13.2 62.6 4.4 8.6 17.9 9.9 24.5 2.4 4.8-5.6 4.8-8.2-.4-34.3-2.6-13-4.8-24.4-4.9-25.3-.1-1 2.3-3.6 6-6.5 35.7-27.5 36.2-28 37-35.6.5-4.2-.3-6.7-8.7-29.2-1.7-4.6-6.3-16.9-14.2-38-2.8-7.6-4.8-13.5-4.8-14.4 0-.2 4.2-.1 9.3.3l9.2.7 4.8 5.2c12.6 13.5 24.3 25 26.5 25.8 4.4 1.7 7.3 1 10.8-2.5 2.9-2.9 3.4-4.1 3.4-7.9 0-4.4-.3-5-10.5-15.8-5.8-6.2-12.1-13.6-14-16.5-6.4-9.6-6.9-9.8-29-11.4-36-2.6-44-3.2-44.3-3.5-.2-.2 1.4-2 3.6-4 6-5.4 8.5-11.4 8.5-20.6.1-6.5-.3-8.3-2.6-12.2-5.2-8.9-15.1-14.8-24.6-14.7-2 .1-6 .9-8.9 1.9"/><path d="M75.6 287.2c-5.4 1.5-10.5 7.2-14.2 15.9-1.8 4.1-14.3 32.5-27.8 63.2C17.1 403.8 9 423.3 9 425.6c0 2.5.9 4.4 3.4 7.2l3.4 3.7h468.4l3.4-3.7c4.6-5.1 4.5-9-.5-18.8-2.1-4.1-11.2-21.9-20.3-39.5s-21.8-42.4-28.3-55c-6.5-12.7-12.7-24.2-13.7-25.8-1.1-1.5-3.8-3.7-6.1-5-4.1-2.1-5.2-2.2-38.5-2.5-38-.3-41.1 0-49.1 5.8-6.2 4.5-9.5 10.5-11.5 20.7-6 30.3-25.6 52.3-54.6 61.4-9.8 3.1-31 3.4-40.5.5-7.1-2.2-17.9-7.4-24.2-11.7-14.7-10.1-26.6-28-30.2-45.4-3.9-19.1-8.3-25.1-21.4-29.6-4.6-1.6-8.9-1.8-37.2-1.8-18.5.1-33.6.5-35.9 1.1"/></g></svg>